<svg width="28" height="24" viewBox="0 0 28 24" fill="none" xmlns="http://www.w3.org/2000/svg">
<g clip-path="url(#clip0)" filter="url(#filter0_d)">
<path d="M23.891 14.6049C23.891 14.5504 23.8365 14.4959 23.8365 14.4959C23.5095 13.8965 22.8011 13.079 21.8202 12.2071C21.3842 11.7711 21.1117 11.4986 21.0027 11.3351C20.7847 11.0627 20.7302 10.7902 20.8392 10.5177C20.9482 10.2997 21.2207 9.86376 21.7657 9.15531C22.0381 8.77384 22.2561 8.50136 22.4196 8.28338C23.6185 6.703 24.1635 5.66757 24 5.23161L23.9455 5.12261C23.891 4.95913 23.782 4.90463 23.6185 4.85013C23.455 4.79564 23.2371 4.79564 22.9646 4.85013H19.9673C19.9128 4.85013 19.8583 4.85013 19.7493 4.85013C19.6403 4.85013 19.6403 4.90463 19.6403 4.90463H19.5858L19.5313 4.95913C19.4768 4.95913 19.4768 5.01362 19.4223 5.06812C19.3678 5.12261 19.3678 5.17711 19.3134 5.23161C18.9864 6.04904 18.6049 6.86648 18.2234 7.57493C17.951 8.0109 17.733 8.39237 17.515 8.71934C17.297 9.04632 17.1335 9.2643 16.97 9.42779C16.8065 9.59128 16.6975 9.70027 16.5886 9.80926C16.4796 9.91825 16.3706 9.91825 16.3161 9.91825C16.2616 9.91825 16.2071 9.86376 16.1526 9.86376C16.0436 9.80926 15.9891 9.70027 15.9346 9.59128C15.8801 9.48229 15.8256 9.3733 15.8256 9.20981C15.8256 9.04632 15.7711 8.88283 15.7711 8.77384C15.7711 8.66485 15.7711 8.50136 15.7711 8.28338C15.7711 8.06539 15.7711 7.90191 15.7711 7.84741C15.7711 7.57493 15.7711 7.30245 15.7711 6.97548C15.7711 6.6485 15.7711 6.43052 15.7711 6.26703C15.7711 6.10354 15.7711 5.88556 15.7711 5.66757C15.7711 5.44959 15.7711 5.2861 15.7166 5.17711C15.7166 5.06812 15.6621 4.95913 15.6076 4.85013C15.5531 4.74114 15.4986 4.63215 15.3896 4.57766C15.2807 4.52316 15.1717 4.46866 15.0627 4.41417C14.6812 4.30518 14.2452 4.30518 13.6458 4.30518C12.3379 4.30518 11.5204 4.35967 11.139 4.57766C10.9755 4.63215 10.8665 4.74114 10.7575 4.90463C10.6485 5.06812 10.594 5.12261 10.703 5.17711C11.139 5.23161 11.4114 5.39509 11.5749 5.61308L11.6294 5.72207C11.6839 5.83106 11.7384 5.99455 11.7929 6.21253C11.8474 6.43052 11.8474 6.703 11.9019 6.97548C11.9564 7.46594 11.9564 7.90191 11.9019 8.28338C11.8474 8.66485 11.8474 8.93733 11.7929 9.10082C11.7384 9.3188 11.7384 9.48229 11.6294 9.59128C11.5749 9.70027 11.5204 9.80926 11.5204 9.80926C11.5204 9.86376 11.4659 9.86376 11.4659 9.86376C11.3569 9.91825 11.3025 9.91825 11.1935 9.91825C11.0845 9.91825 10.9755 9.86376 10.8665 9.75477C10.703 9.64577 10.594 9.53678 10.4305 9.3733C10.267 9.20981 10.1035 8.99182 9.94005 8.66485C9.77657 8.33787 9.55858 8.0109 9.3406 7.57493L9.17711 7.24795C9.06812 7.02997 8.90463 6.75749 8.74114 6.37602C8.57766 5.99455 8.41417 5.66757 8.25068 5.2861C8.19619 5.17711 8.08719 5.06812 7.9782 4.95913H7.92371C7.86921 4.90463 7.81471 4.90463 7.76022 4.85013C7.70572 4.85013 7.59673 4.79564 7.54223 4.79564H4.70845C4.38147 4.79564 4.16349 4.90463 4.0545 5.01362V5.06812C4 5.12261 4 5.17711 4 5.23161C4 5.2861 4 5.39509 4.0545 5.50409C4.49046 6.48501 4.92643 7.41144 5.41689 8.33787C5.90736 9.2643 6.34332 9.97275 6.6703 10.5177C7.05177 11.0627 7.37875 11.6076 7.76022 12.0981C8.14169 12.5886 8.35967 12.9155 8.52316 13.0245C8.63215 13.188 8.74114 13.2425 8.79564 13.3515L9.06812 13.624C9.23161 13.7875 9.50409 14.0054 9.77657 14.2234C10.1035 14.4414 10.4305 14.6594 10.8665 14.9319C11.248 15.1499 11.7384 15.3678 12.2289 15.4768C12.7738 15.6403 13.2643 15.6948 13.7548 15.6403H14.9537C15.1717 15.6403 15.3896 15.5313 15.4986 15.4223L15.5531 15.3678C15.6076 15.3133 15.6076 15.2589 15.6076 15.1499C15.6076 15.0409 15.6621 14.9864 15.6621 14.8774C15.6621 14.6049 15.6621 14.3324 15.7166 14.0599C15.7711 13.842 15.8256 13.624 15.8801 13.515C15.9346 13.406 16.0436 13.297 16.0981 13.188C16.2071 13.079 16.2616 13.079 16.2616 13.0245C16.3161 13.0245 16.3161 12.97 16.3706 12.97C16.5341 12.9155 16.752 12.97 16.97 13.1335C17.188 13.297 17.406 13.515 17.624 13.733C17.842 13.951 18.0599 14.2234 18.3324 14.5504C18.6049 14.8229 18.8774 15.0954 19.0409 15.2044L19.2589 15.3133C19.4223 15.4223 19.5858 15.4768 19.8038 15.5313C20.0218 15.5858 20.2398 15.6403 20.4033 15.5858L23.0736 15.5313C23.346 15.5313 23.564 15.4768 23.673 15.4223C23.8365 15.3133 23.891 15.2589 23.9455 15.1499C24 15.0409 24 14.9319 23.9455 14.7684C23.9455 14.7684 23.9455 14.6594 23.891 14.6049Z" fill="#B3B3B3"/>
</g>
<defs>
<filter id="filter0_d" x="0" y="0" width="28" height="28" filterUnits="userSpaceOnUse" color-interpolation-filters="sRGB">
<feFlood flood-opacity="0" result="BackgroundImageFix"/>
<feColorMatrix in="SourceAlpha" type="matrix" values="0 0 0 0 0 0 0 0 0 0 0 0 0 0 0 0 0 0 127 0"/>
<feOffset dy="4"/>
<feGaussianBlur stdDeviation="2"/>
<feColorMatrix type="matrix" values="0 0 0 0 0 0 0 0 0 0 0 0 0 0 0 0 0 0 0.25 0"/>
<feBlend mode="normal" in2="BackgroundImageFix" result="effect1_dropShadow"/>
<feBlend mode="normal" in="SourceGraphic" in2="effect1_dropShadow" result="shape"/>
</filter>
<clipPath id="clip0">
<rect width="20" height="20" fill="white" transform="translate(4)"/>
</clipPath>
</defs>
</svg>
